%TF.GenerationSoftware,KiCad,Pcbnew,(5.1.6)-1*%
%TF.CreationDate,2025-01-16T14:06:25-05:00*%
%TF.ProjectId,rotary_board,726f7461-7279-45f6-926f-6172642e6b69,rev?*%
%TF.SameCoordinates,Original*%
%TF.FileFunction,Soldermask,Bot*%
%TF.FilePolarity,Negative*%
%FSLAX46Y46*%
G04 Gerber Fmt 4.6, Leading zero omitted, Abs format (unit mm)*
G04 Created by KiCad (PCBNEW (5.1.6)-1) date 2025-01-16 14:06:25*
%MOMM*%
%LPD*%
G01*
G04 APERTURE LIST*
%ADD10C,2.300000*%
G04 APERTURE END LIST*
D10*
%TO.C,SW1*%
X10600000Y37400000D03*
X9300000Y37400000D03*
X10700000Y48600000D03*
X9400000Y48600000D03*
X17500000Y40500000D03*
X17500000Y43000000D03*
X17500000Y45500000D03*
X10000000Y37400000D03*
X10000000Y48600000D03*
X3000000Y40500000D03*
X3000000Y45500000D03*
%TD*%
%TO.C,SW2*%
X45400000Y48600000D03*
X46700000Y48600000D03*
X45300000Y37400000D03*
X46600000Y37400000D03*
X38500000Y45500000D03*
X38500000Y43000000D03*
X38500000Y40500000D03*
X46000000Y48600000D03*
X46000000Y37400000D03*
X53000000Y45500000D03*
X53000000Y40500000D03*
%TD*%
%TO.C,SW3*%
X10600000Y1400000D03*
X9300000Y1400000D03*
X10700000Y12600000D03*
X9400000Y12600000D03*
X17500000Y4500000D03*
X17500000Y7000000D03*
X17500000Y9500000D03*
X10000000Y1400000D03*
X10000000Y12600000D03*
X3000000Y4500000D03*
X3000000Y9500000D03*
%TD*%
%TO.C,SW4*%
X45400000Y12600000D03*
X46700000Y12600000D03*
X45300000Y1400000D03*
X46600000Y1400000D03*
X38500000Y9500000D03*
X38500000Y7000000D03*
X38500000Y4500000D03*
X46000000Y12600000D03*
X46000000Y1400000D03*
X53000000Y9500000D03*
X53000000Y4500000D03*
%TD*%
%TO.C,J1*%
X27500000Y36580000D03*
X27500000Y34040000D03*
X27500000Y31500000D03*
X27500000Y28960000D03*
X27500000Y26420000D03*
%TD*%
%TO.C,J2*%
X27500000Y12920000D03*
X27500000Y15460000D03*
X27500000Y18000000D03*
X27500000Y20540000D03*
X27500000Y23080000D03*
%TD*%
%TO.C,R1*%
X24100000Y45400000D03*
X31720000Y45400000D03*
%TD*%
%TO.C,R2*%
X9880000Y31400000D03*
X17500000Y31400000D03*
%TD*%
%TO.C,R3*%
X31600000Y41800000D03*
X23980000Y41800000D03*
%TD*%
%TO.C,R4*%
X46120000Y31600000D03*
X38500000Y31600000D03*
%TD*%
%TO.C,R5*%
X24600000Y7500000D03*
X32220000Y7500000D03*
%TD*%
%TO.C,R6*%
X10080000Y18700000D03*
X17700000Y18700000D03*
%TD*%
%TO.C,R7*%
X32300000Y4500000D03*
X24680000Y4500000D03*
%TD*%
%TO.C,R8*%
X46120000Y19000000D03*
X38500000Y19000000D03*
%TD*%
M02*
