M48
FMAT,2
METRIC
T1C0.900
%
G90
G05
T1
X45.3Y1.4
X46.0Y1.4
X46.6Y1.4
X9.3Y1.4
X10.0Y1.4
X10.6Y1.4
X32.3Y4.5
X24.68Y4.5
X17.5Y4.5
X3.0Y4.5
X53.0Y4.5
X38.5Y4.5
X38.5Y7.0
X17.5Y7.0
X32.22Y7.5
X24.6Y7.5
X38.5Y9.5
X53.0Y9.5
X3.0Y9.5
X17.5Y9.5
X10.7Y12.6
X10.0Y12.6
X9.4Y12.6
X46.7Y12.6
X46.0Y12.6
X45.4Y12.6
X27.5Y12.92
X27.5Y15.46
X27.5Y18.0
X17.7Y18.7
X10.08Y18.7
X38.5Y19.0
X46.12Y19.0
X27.5Y20.54
X27.5Y23.08
X27.5Y26.42
X27.5Y28.96
X17.5Y31.4
X9.88Y31.4
X27.5Y31.5
X46.12Y31.6
X38.5Y31.6
X27.5Y34.04
X27.5Y36.58
X45.3Y37.4
X46.0Y37.4
X46.6Y37.4
X9.3Y37.4
X10.0Y37.4
X10.6Y37.4
X17.5Y40.5
X3.0Y40.5
X53.0Y40.5
X38.5Y40.5
X23.98Y41.8
X31.6Y41.8
X17.5Y43.0
X38.5Y43.0
X24.1Y45.4
X31.72Y45.4
X17.5Y45.5
X3.0Y45.5
X53.0Y45.5
X38.5Y45.5
X45.4Y48.6
X46.0Y48.6
X46.7Y48.6
X9.4Y48.6
X10.0Y48.6
X10.7Y48.6
G05
T0
M30
