%TF.GenerationSoftware,KiCad,Pcbnew,(5.1.6)-1*%
%TF.CreationDate,2025-01-16T14:06:25-05:00*%
%TF.ProjectId,rotary_board,726f7461-7279-45f6-926f-6172642e6b69,rev?*%
%TF.SameCoordinates,Original*%
%TF.FileFunction,Copper,L2,Bot*%
%TF.FilePolarity,Positive*%
%FSLAX46Y46*%
G04 Gerber Fmt 4.6, Leading zero omitted, Abs format (unit mm)*
G04 Created by KiCad (PCBNEW (5.1.6)-1) date 2025-01-16 14:06:25*
%MOMM*%
%LPD*%
G01*
G04 APERTURE LIST*
%TA.AperFunction,ComponentPad*%
%ADD10C,2.200000*%
%TD*%
%TA.AperFunction,Conductor*%
%ADD11C,2.200000*%
%TD*%
%TA.AperFunction,Conductor*%
%ADD12C,0.254000*%
%TD*%
G04 APERTURE END LIST*
D10*
%TO.P,SW1,*%
%TO.N,*%
X10600000Y37400000D03*
X9300000Y37400000D03*
X10700000Y48600000D03*
X9400000Y48600000D03*
%TO.P,SW1,A*%
%TO.N,ROT1A*%
X17500000Y40500000D03*
%TO.P,SW1,C*%
%TO.N,+3V3*%
X17500000Y43000000D03*
%TO.P,SW1,B*%
%TO.N,ROT1B*%
X17500000Y45500000D03*
%TO.P,SW1,*%
%TO.N,*%
X10000000Y37400000D03*
X10000000Y48600000D03*
%TO.P,SW1,S1*%
%TO.N,GND*%
X3000000Y40500000D03*
%TO.P,SW1,S2*%
X3000000Y45500000D03*
%TD*%
%TO.P,SW2,*%
%TO.N,*%
X45400000Y48600000D03*
X46700000Y48600000D03*
X45300000Y37400000D03*
X46600000Y37400000D03*
%TO.P,SW2,A*%
%TO.N,ROT2A*%
X38500000Y45500000D03*
%TO.P,SW2,C*%
%TO.N,+3V3*%
X38500000Y43000000D03*
%TO.P,SW2,B*%
%TO.N,ROT2B*%
X38500000Y40500000D03*
%TO.P,SW2,*%
%TO.N,*%
X46000000Y48600000D03*
X46000000Y37400000D03*
%TO.P,SW2,S1*%
%TO.N,GND*%
X53000000Y45500000D03*
%TO.P,SW2,S2*%
X53000000Y40500000D03*
%TD*%
%TO.P,SW3,*%
%TO.N,*%
X10600000Y1400000D03*
X9300000Y1400000D03*
X10700000Y12600000D03*
X9400000Y12600000D03*
%TO.P,SW3,A*%
%TO.N,ROT3A*%
X17500000Y4500000D03*
%TO.P,SW3,C*%
%TO.N,+3V3*%
X17500000Y7000000D03*
%TO.P,SW3,B*%
%TO.N,ROT3B*%
X17500000Y9500000D03*
%TO.P,SW3,*%
%TO.N,*%
X10000000Y1400000D03*
X10000000Y12600000D03*
%TO.P,SW3,S1*%
%TO.N,GND*%
X3000000Y4500000D03*
%TO.P,SW3,S2*%
X3000000Y9500000D03*
%TD*%
%TO.P,SW4,*%
%TO.N,*%
X45400000Y12600000D03*
X46700000Y12600000D03*
X45300000Y1400000D03*
X46600000Y1400000D03*
%TO.P,SW4,A*%
%TO.N,ROT4A*%
X38500000Y9500000D03*
%TO.P,SW4,C*%
%TO.N,+3V3*%
X38500000Y7000000D03*
%TO.P,SW4,B*%
%TO.N,ROT4B*%
X38500000Y4500000D03*
%TO.P,SW4,*%
%TO.N,*%
X46000000Y12600000D03*
X46000000Y1400000D03*
%TO.P,SW4,S1*%
%TO.N,GND*%
X53000000Y9500000D03*
%TO.P,SW4,S2*%
X53000000Y4500000D03*
%TD*%
%TO.P,J1,5*%
%TO.N,GND*%
X27500000Y36580000D03*
%TO.P,J1,4*%
%TO.N,ROT2A*%
X27500000Y34040000D03*
%TO.P,J1,3*%
%TO.N,ROT2B*%
X27500000Y31500000D03*
%TO.P,J1,2*%
%TO.N,ROT1B*%
X27500000Y28960000D03*
%TO.P,J1,1*%
%TO.N,ROT1A*%
X27500000Y26420000D03*
%TD*%
%TO.P,J2,1*%
%TO.N,ROT3A*%
X27500000Y12920000D03*
%TO.P,J2,2*%
%TO.N,ROT3B*%
X27500000Y15460000D03*
%TO.P,J2,3*%
%TO.N,ROT4B*%
X27500000Y18000000D03*
%TO.P,J2,4*%
%TO.N,ROT4A*%
X27500000Y20540000D03*
%TO.P,J2,5*%
%TO.N,+3V3*%
X27500000Y23080000D03*
%TD*%
%TO.P,R1,1*%
%TO.N,ROT1B*%
X24100000Y45400000D03*
%TO.P,R1,2*%
%TO.N,GND*%
X31720000Y45400000D03*
%TD*%
%TO.P,R2,2*%
%TO.N,GND*%
X9880000Y31400000D03*
%TO.P,R2,1*%
%TO.N,ROT1A*%
X17500000Y31400000D03*
%TD*%
%TO.P,R3,1*%
%TO.N,ROT2A*%
X31600000Y41800000D03*
%TO.P,R3,2*%
%TO.N,GND*%
X23980000Y41800000D03*
%TD*%
%TO.P,R4,2*%
%TO.N,GND*%
X46120000Y31600000D03*
%TO.P,R4,1*%
%TO.N,ROT2B*%
X38500000Y31600000D03*
%TD*%
%TO.P,R5,1*%
%TO.N,ROT3A*%
X24600000Y7500000D03*
%TO.P,R5,2*%
%TO.N,GND*%
X32220000Y7500000D03*
%TD*%
%TO.P,R6,2*%
%TO.N,GND*%
X10080000Y18700000D03*
%TO.P,R6,1*%
%TO.N,ROT3B*%
X17700000Y18700000D03*
%TD*%
%TO.P,R7,1*%
%TO.N,ROT4B*%
X32300000Y4500000D03*
%TO.P,R7,2*%
%TO.N,GND*%
X24680000Y4500000D03*
%TD*%
%TO.P,R8,2*%
%TO.N,GND*%
X46120000Y19000000D03*
%TO.P,R8,1*%
%TO.N,ROT4A*%
X38500000Y19000000D03*
%TD*%
D11*
%TO.N,+3V3*%
X31000000Y23080000D02*
X18980000Y23080000D01*
X39394126Y43000000D02*
X40900010Y41494116D01*
X38500000Y43000000D02*
X39394126Y43000000D01*
X41000010Y27600010D02*
X36480000Y23080000D01*
X41000010Y32494116D02*
X41000010Y27600010D01*
X40900010Y32594116D02*
X41000010Y32494116D01*
X40900010Y41494116D02*
X40900010Y32594116D01*
X31000000Y23080000D02*
X36480000Y23080000D01*
X16605874Y43000000D02*
X17500000Y43000000D01*
X19000000Y23500000D02*
X15099990Y27400010D01*
X15099990Y41494116D02*
X16605874Y43000000D01*
X15099990Y27400010D02*
X15099990Y41494116D01*
X17500000Y7000000D02*
X16605874Y7000000D01*
X16605874Y7000000D02*
X15099990Y8505884D01*
X15099990Y8505884D02*
X15099990Y19794116D01*
X15099990Y19794116D02*
X18805874Y23500000D01*
X18805874Y23500000D02*
X19000000Y23500000D01*
X37120000Y23080000D02*
X36480000Y23080000D01*
X37972002Y23080000D02*
X37120000Y23080000D01*
X40960009Y20091993D02*
X37972002Y23080000D01*
X40960009Y8408007D02*
X40960009Y20091993D01*
X39552002Y7000000D02*
X40960009Y8408007D01*
X38500000Y7000000D02*
X39552002Y7000000D01*
%TO.N,ROT2B*%
X27500000Y31500000D02*
X38600000Y31500000D01*
X35199992Y31499992D02*
X34300000Y31499992D01*
X38500000Y34300000D02*
X38000000Y34300000D01*
X38000000Y34300000D02*
X35199992Y31499992D01*
X38500000Y34300000D02*
X38500000Y31700000D01*
X38500000Y40500000D02*
X38500000Y34300000D01*
%TO.N,ROT2A*%
X35900000Y35594126D02*
X34205875Y33900001D01*
X27534124Y33900000D02*
X34100000Y33900000D01*
X36099999Y44655633D02*
X36099999Y44152001D01*
X38500000Y45500000D02*
X36944366Y45500000D01*
X36944366Y45500000D02*
X36099999Y44655633D01*
X36099999Y44152001D02*
X36099990Y44151992D01*
X36099990Y44151992D02*
X36099990Y41494116D01*
X36099990Y41494116D02*
X36099990Y35794116D01*
X35794106Y41800000D02*
X36099990Y41494116D01*
X31600000Y41800000D02*
X35794106Y41800000D01*
%TO.N,ROT1B*%
X18552002Y45500000D02*
X17600000Y45500000D01*
X26505875Y28960000D02*
X26505884Y28959991D01*
X20440000Y28960000D02*
X26505875Y28960000D01*
X26505884Y28959991D02*
X27600000Y28959991D01*
X17500000Y45500000D02*
X24000000Y45500000D01*
X19055634Y45500000D02*
X19900010Y44655624D01*
X17500000Y45500000D02*
X19055634Y45500000D01*
X19900010Y29499990D02*
X20440000Y28960000D01*
X19900010Y44655624D02*
X19900010Y29499990D01*
%TO.N,ROT1A*%
X17500000Y40500000D02*
X17500000Y28500000D01*
X19600000Y26500000D02*
X27400000Y26500000D01*
X19400000Y26600000D02*
X17500000Y28500000D01*
%TO.N,ROT3A*%
X20800000Y12800000D02*
X27400000Y12800000D01*
X18394126Y4500000D02*
X19900010Y6005884D01*
X17500000Y4500000D02*
X18394126Y4500000D01*
X19900010Y11900010D02*
X20800000Y12800000D01*
X20800000Y7500000D02*
X19900010Y8399990D01*
X24600000Y7500000D02*
X20800000Y7500000D01*
X19900010Y6005884D02*
X19900010Y8399990D01*
X19900010Y8399990D02*
X19900010Y11900010D01*
%TO.N,ROT3B*%
X17500000Y9500000D02*
X17500000Y13100000D01*
X17500000Y13100000D02*
X19800000Y15400000D01*
X19800000Y15400000D02*
X27700000Y15400000D01*
X17500000Y13100000D02*
X17500000Y18800000D01*
%TO.N,ROT4A*%
X38500000Y18099982D02*
X38500000Y9600000D01*
X38500000Y18100000D02*
X38500000Y18099982D01*
X36060000Y20540000D02*
X38500000Y18100000D01*
X35560000Y20540000D02*
X36060000Y20540000D01*
X27500000Y20540000D02*
X35560000Y20540000D01*
X38500000Y19000000D02*
X36977886Y20522114D01*
X35577886Y20522114D02*
X35560000Y20540000D01*
X36977886Y20522114D02*
X35577886Y20522114D01*
%TO.N,ROT4B*%
X27500000Y18000000D02*
X35205874Y18000000D01*
X35205874Y18000000D02*
X36099999Y17105875D01*
X36099999Y17105875D02*
X36099990Y17105866D01*
X36099999Y5000001D02*
X36600000Y4500000D01*
X36099999Y17105875D02*
X36099999Y5000001D01*
X32300000Y4500000D02*
X36600000Y4500000D01*
X36600000Y4500000D02*
X38500000Y4500000D01*
%TD*%
D12*
%TO.N,GND*%
G36*
X8046790Y49323306D02*
G01*
X7931681Y49045410D01*
X7873000Y48750396D01*
X7873000Y48449604D01*
X7931681Y48154590D01*
X8046790Y47876694D01*
X8213901Y47626594D01*
X8426594Y47413901D01*
X8676694Y47246790D01*
X8954590Y47131681D01*
X9249604Y47073000D01*
X9550396Y47073000D01*
X9700000Y47102758D01*
X9849604Y47073000D01*
X10150396Y47073000D01*
X10350000Y47112703D01*
X10549604Y47073000D01*
X10850396Y47073000D01*
X11145410Y47131681D01*
X11423306Y47246790D01*
X11673406Y47413901D01*
X11886099Y47626594D01*
X12053210Y47876694D01*
X12168319Y48154590D01*
X12227000Y48449604D01*
X12227000Y48750396D01*
X12168319Y49045410D01*
X12053210Y49323306D01*
X11903075Y49548000D01*
X44196925Y49548000D01*
X44046790Y49323306D01*
X43931681Y49045410D01*
X43873000Y48750396D01*
X43873000Y48449604D01*
X43931681Y48154590D01*
X44046790Y47876694D01*
X44213901Y47626594D01*
X44426594Y47413901D01*
X44676694Y47246790D01*
X44954590Y47131681D01*
X45249604Y47073000D01*
X45550396Y47073000D01*
X45700000Y47102758D01*
X45849604Y47073000D01*
X46150396Y47073000D01*
X46350000Y47112703D01*
X46549604Y47073000D01*
X46850396Y47073000D01*
X47145410Y47131681D01*
X47423306Y47246790D01*
X47673406Y47413901D01*
X47886099Y47626594D01*
X48053210Y47876694D01*
X48168319Y48154590D01*
X48227000Y48449604D01*
X48227000Y48750396D01*
X48168319Y49045410D01*
X48053210Y49323306D01*
X47903075Y49548000D01*
X55548001Y49548000D01*
X55548000Y452000D01*
X47803075Y452000D01*
X47953210Y676694D01*
X48068319Y954590D01*
X48127000Y1249604D01*
X48127000Y1550396D01*
X48068319Y1845410D01*
X47953210Y2123306D01*
X47786099Y2373406D01*
X47573406Y2586099D01*
X47323306Y2753210D01*
X47045410Y2868319D01*
X46750396Y2927000D01*
X46449604Y2927000D01*
X46300000Y2897242D01*
X46150396Y2927000D01*
X45849604Y2927000D01*
X45650000Y2887297D01*
X45450396Y2927000D01*
X45149604Y2927000D01*
X44854590Y2868319D01*
X44576694Y2753210D01*
X44326594Y2586099D01*
X44113901Y2373406D01*
X43946790Y2123306D01*
X43831681Y1845410D01*
X43773000Y1550396D01*
X43773000Y1249604D01*
X43831681Y954590D01*
X43946790Y676694D01*
X44096925Y452000D01*
X11803075Y452000D01*
X11953210Y676694D01*
X12068319Y954590D01*
X12127000Y1249604D01*
X12127000Y1550396D01*
X12068319Y1845410D01*
X11953210Y2123306D01*
X11786099Y2373406D01*
X11573406Y2586099D01*
X11323306Y2753210D01*
X11045410Y2868319D01*
X10750396Y2927000D01*
X10449604Y2927000D01*
X10300000Y2897242D01*
X10150396Y2927000D01*
X9849604Y2927000D01*
X9650000Y2887297D01*
X9450396Y2927000D01*
X9149604Y2927000D01*
X8854590Y2868319D01*
X8576694Y2753210D01*
X8326594Y2586099D01*
X8113901Y2373406D01*
X7946790Y2123306D01*
X7831681Y1845410D01*
X7773000Y1550396D01*
X7773000Y1249604D01*
X7831681Y954590D01*
X7946790Y676694D01*
X8096925Y452000D01*
X452000Y452000D01*
X452000Y12750396D01*
X7873000Y12750396D01*
X7873000Y12449604D01*
X7931681Y12154590D01*
X8046790Y11876694D01*
X8213901Y11626594D01*
X8426594Y11413901D01*
X8676694Y11246790D01*
X8954590Y11131681D01*
X9249604Y11073000D01*
X9550396Y11073000D01*
X9700000Y11102758D01*
X9849604Y11073000D01*
X10150396Y11073000D01*
X10350000Y11112703D01*
X10549604Y11073000D01*
X10850396Y11073000D01*
X11145410Y11131681D01*
X11423306Y11246790D01*
X11673406Y11413901D01*
X11886099Y11626594D01*
X12053210Y11876694D01*
X12168319Y12154590D01*
X12227000Y12449604D01*
X12227000Y12750396D01*
X12168319Y13045410D01*
X12053210Y13323306D01*
X11886099Y13573406D01*
X11673406Y13786099D01*
X11423306Y13953210D01*
X11145410Y14068319D01*
X10850396Y14127000D01*
X10549604Y14127000D01*
X10350000Y14087297D01*
X10150396Y14127000D01*
X9849604Y14127000D01*
X9700000Y14097242D01*
X9550396Y14127000D01*
X9249604Y14127000D01*
X8954590Y14068319D01*
X8676694Y13953210D01*
X8426594Y13786099D01*
X8213901Y13573406D01*
X8046790Y13323306D01*
X7931681Y13045410D01*
X7873000Y12750396D01*
X452000Y12750396D01*
X452000Y37550396D01*
X7773000Y37550396D01*
X7773000Y37249604D01*
X7831681Y36954590D01*
X7946790Y36676694D01*
X8113901Y36426594D01*
X8326594Y36213901D01*
X8576694Y36046790D01*
X8854590Y35931681D01*
X9149604Y35873000D01*
X9450396Y35873000D01*
X9650000Y35912703D01*
X9849604Y35873000D01*
X10150396Y35873000D01*
X10300000Y35902758D01*
X10449604Y35873000D01*
X10750396Y35873000D01*
X11045410Y35931681D01*
X11323306Y36046790D01*
X11573406Y36213901D01*
X11786099Y36426594D01*
X11953210Y36676694D01*
X12068319Y36954590D01*
X12127000Y37249604D01*
X12127000Y37550396D01*
X12068319Y37845410D01*
X11953210Y38123306D01*
X11786099Y38373406D01*
X11573406Y38586099D01*
X11323306Y38753210D01*
X11045410Y38868319D01*
X10750396Y38927000D01*
X10449604Y38927000D01*
X10300000Y38897242D01*
X10150396Y38927000D01*
X9849604Y38927000D01*
X9650000Y38887297D01*
X9450396Y38927000D01*
X9149604Y38927000D01*
X8854590Y38868319D01*
X8576694Y38753210D01*
X8326594Y38586099D01*
X8113901Y38373406D01*
X7946790Y38123306D01*
X7831681Y37845410D01*
X7773000Y37550396D01*
X452000Y37550396D01*
X452000Y41494116D01*
X13565603Y41494116D01*
X13572991Y41419105D01*
X13572990Y27475011D01*
X13565603Y27400010D01*
X13572990Y27325009D01*
X13572990Y27325000D01*
X13595085Y27100667D01*
X13682400Y26812826D01*
X13824193Y26547551D01*
X14015014Y26315034D01*
X14073284Y26267213D01*
X16743433Y23597063D01*
X14073279Y20926908D01*
X14015015Y20879092D01*
X13967199Y20820828D01*
X13967198Y20820827D01*
X13824194Y20646576D01*
X13682401Y20381301D01*
X13595086Y20093460D01*
X13565603Y19794116D01*
X13572991Y19719105D01*
X13572990Y8580885D01*
X13565603Y8505884D01*
X13572990Y8430883D01*
X13572990Y8430874D01*
X13595085Y8206541D01*
X13682400Y7918700D01*
X13824193Y7653425D01*
X14015014Y7420908D01*
X14073283Y7373087D01*
X15473081Y5973289D01*
X15520898Y5915024D01*
X15579162Y5867208D01*
X15579163Y5867207D01*
X15753413Y5724203D01*
X16018689Y5582410D01*
X16306529Y5495095D01*
X16332984Y5492489D01*
X16313901Y5473406D01*
X16272015Y5410719D01*
X16224203Y5352460D01*
X16188674Y5285989D01*
X16146790Y5223306D01*
X16117941Y5153658D01*
X16082410Y5087185D01*
X16060532Y5015061D01*
X16031681Y4945410D01*
X16016973Y4871466D01*
X15995095Y4799344D01*
X15987707Y4724336D01*
X15973000Y4650396D01*
X15973000Y4575011D01*
X15965612Y4500000D01*
X15973000Y4424989D01*
X15973000Y4349604D01*
X15987707Y4275664D01*
X15995095Y4200656D01*
X16016973Y4128534D01*
X16031681Y4054590D01*
X16060532Y3984939D01*
X16082410Y3912815D01*
X16117941Y3846342D01*
X16146790Y3776694D01*
X16188674Y3714011D01*
X16224203Y3647540D01*
X16272015Y3589281D01*
X16313901Y3526594D01*
X16367212Y3473283D01*
X16415024Y3415024D01*
X16473283Y3367212D01*
X16526594Y3313901D01*
X16589281Y3272015D01*
X16647540Y3224203D01*
X16714011Y3188674D01*
X16776694Y3146790D01*
X16846342Y3117941D01*
X16912815Y3082410D01*
X16984939Y3060532D01*
X17054590Y3031681D01*
X17128534Y3016973D01*
X17200656Y2995095D01*
X17275664Y2987707D01*
X17349604Y2973000D01*
X18319125Y2973000D01*
X18394126Y2965613D01*
X18469127Y2973000D01*
X18469137Y2973000D01*
X18693470Y2995095D01*
X18981311Y3082410D01*
X19246586Y3224203D01*
X19479102Y3415024D01*
X19526923Y3473293D01*
X20926723Y4873093D01*
X20984986Y4920908D01*
X21049896Y5000001D01*
X21175807Y5153423D01*
X21317600Y5418699D01*
X21404915Y5706539D01*
X21431159Y5973000D01*
X24750396Y5973000D01*
X24824336Y5987707D01*
X24899344Y5995095D01*
X24971466Y6016973D01*
X25045410Y6031681D01*
X25115061Y6060532D01*
X25187185Y6082410D01*
X25253658Y6117941D01*
X25323306Y6146790D01*
X25385989Y6188674D01*
X25452460Y6224203D01*
X25510719Y6272015D01*
X25573406Y6313901D01*
X25626717Y6367212D01*
X25684976Y6415024D01*
X25732788Y6473283D01*
X25786099Y6526594D01*
X25827985Y6589281D01*
X25875797Y6647540D01*
X25911326Y6714011D01*
X25953210Y6776694D01*
X25982059Y6846342D01*
X26017590Y6912815D01*
X26039468Y6984939D01*
X26068319Y7054590D01*
X26083027Y7128534D01*
X26104905Y7200656D01*
X26112293Y7275664D01*
X26127000Y7349604D01*
X26127000Y7424989D01*
X26134388Y7500000D01*
X26127000Y7575011D01*
X26127000Y7650396D01*
X26112293Y7724336D01*
X26104905Y7799344D01*
X26083027Y7871466D01*
X26068319Y7945410D01*
X26039468Y8015061D01*
X26017590Y8087185D01*
X25982059Y8153658D01*
X25953210Y8223306D01*
X25911326Y8285989D01*
X25875797Y8352460D01*
X25827985Y8410719D01*
X25786099Y8473406D01*
X25732788Y8526717D01*
X25684976Y8584976D01*
X25626717Y8632788D01*
X25573406Y8686099D01*
X25510719Y8727985D01*
X25452460Y8775797D01*
X25385989Y8811326D01*
X25323306Y8853210D01*
X25253658Y8882059D01*
X25187185Y8917590D01*
X25115061Y8939468D01*
X25045410Y8968319D01*
X24971466Y8983027D01*
X24899344Y9004905D01*
X24824336Y9012293D01*
X24750396Y9027000D01*
X21432503Y9027000D01*
X21427010Y9032493D01*
X21427010Y11267507D01*
X21432503Y11273000D01*
X27475011Y11273000D01*
X27699344Y11295095D01*
X27987185Y11382410D01*
X28252460Y11524203D01*
X28484976Y11715024D01*
X28624319Y11884814D01*
X28686099Y11946594D01*
X28853210Y12196694D01*
X28968319Y12474590D01*
X29027000Y12769604D01*
X29027000Y13070396D01*
X28968319Y13365410D01*
X28853210Y13643306D01*
X28686099Y13893406D01*
X28489145Y14090360D01*
X28552460Y14124203D01*
X28784976Y14315024D01*
X28975797Y14547540D01*
X29117590Y14812815D01*
X29204905Y15100656D01*
X29234388Y15400000D01*
X29204905Y15699344D01*
X29117590Y15987185D01*
X28975797Y16252460D01*
X28794804Y16473000D01*
X34572999Y16473000D01*
X34573000Y6027000D01*
X32149604Y6027000D01*
X32075664Y6012293D01*
X32000656Y6004905D01*
X31928534Y5983027D01*
X31854590Y5968319D01*
X31784939Y5939468D01*
X31712815Y5917590D01*
X31646342Y5882059D01*
X31576694Y5853210D01*
X31514011Y5811326D01*
X31447540Y5775797D01*
X31389281Y5727985D01*
X31326594Y5686099D01*
X31273283Y5632788D01*
X31215024Y5584976D01*
X31167212Y5526717D01*
X31113901Y5473406D01*
X31072015Y5410719D01*
X31024203Y5352460D01*
X30988674Y5285989D01*
X30946790Y5223306D01*
X30917941Y5153658D01*
X30882410Y5087185D01*
X30860532Y5015061D01*
X30831681Y4945410D01*
X30816973Y4871466D01*
X30795095Y4799344D01*
X30787707Y4724336D01*
X30773000Y4650396D01*
X30773000Y4575011D01*
X30765612Y4500000D01*
X30773000Y4424989D01*
X30773000Y4349604D01*
X30787707Y4275664D01*
X30795095Y4200656D01*
X30816973Y4128534D01*
X30831681Y4054590D01*
X30860532Y3984939D01*
X30882410Y3912815D01*
X30917941Y3846342D01*
X30946790Y3776694D01*
X30988674Y3714011D01*
X31024203Y3647540D01*
X31072015Y3589281D01*
X31113901Y3526594D01*
X31167212Y3473283D01*
X31215024Y3415024D01*
X31273283Y3367212D01*
X31326594Y3313901D01*
X31389281Y3272015D01*
X31447540Y3224203D01*
X31514011Y3188674D01*
X31576694Y3146790D01*
X31646342Y3117941D01*
X31712815Y3082410D01*
X31784939Y3060532D01*
X31854590Y3031681D01*
X31928534Y3016973D01*
X32000656Y2995095D01*
X32075664Y2987707D01*
X32149604Y2973000D01*
X36524998Y2973000D01*
X36599999Y2965613D01*
X36675000Y2973000D01*
X38650396Y2973000D01*
X38724336Y2987707D01*
X38799344Y2995095D01*
X38871466Y3016973D01*
X38945410Y3031681D01*
X39015061Y3060532D01*
X39087185Y3082410D01*
X39153658Y3117941D01*
X39223306Y3146790D01*
X39285989Y3188674D01*
X39352460Y3224203D01*
X39410719Y3272015D01*
X39473406Y3313901D01*
X39526717Y3367212D01*
X39584976Y3415024D01*
X39632788Y3473283D01*
X39686099Y3526594D01*
X39727985Y3589281D01*
X39775797Y3647540D01*
X39811326Y3714011D01*
X39853210Y3776694D01*
X39882059Y3846342D01*
X39917590Y3912815D01*
X39939468Y3984939D01*
X39968319Y4054590D01*
X39983027Y4128534D01*
X40004905Y4200656D01*
X40012293Y4275664D01*
X40027000Y4349604D01*
X40027000Y4424989D01*
X40034388Y4500000D01*
X40027000Y4575011D01*
X40027000Y4650396D01*
X40012293Y4724336D01*
X40004905Y4799344D01*
X39983027Y4871466D01*
X39968319Y4945410D01*
X39939468Y5015061D01*
X39917590Y5087185D01*
X39882059Y5153658D01*
X39853210Y5223306D01*
X39811326Y5285989D01*
X39775797Y5352460D01*
X39727985Y5410719D01*
X39686099Y5473406D01*
X39681171Y5478334D01*
X39851346Y5495095D01*
X40139187Y5582410D01*
X40404462Y5724203D01*
X40636978Y5915024D01*
X40684798Y5973293D01*
X41986722Y7275216D01*
X42044985Y7323031D01*
X42127417Y7423474D01*
X42190220Y7500000D01*
X42235806Y7555547D01*
X42377599Y7820822D01*
X42387197Y7852461D01*
X42464914Y8108662D01*
X42494397Y8408007D01*
X42487009Y8483018D01*
X42487009Y12750396D01*
X43873000Y12750396D01*
X43873000Y12449604D01*
X43931681Y12154590D01*
X44046790Y11876694D01*
X44213901Y11626594D01*
X44426594Y11413901D01*
X44676694Y11246790D01*
X44954590Y11131681D01*
X45249604Y11073000D01*
X45550396Y11073000D01*
X45700000Y11102758D01*
X45849604Y11073000D01*
X46150396Y11073000D01*
X46350000Y11112703D01*
X46549604Y11073000D01*
X46850396Y11073000D01*
X47145410Y11131681D01*
X47423306Y11246790D01*
X47673406Y11413901D01*
X47886099Y11626594D01*
X48053210Y11876694D01*
X48168319Y12154590D01*
X48227000Y12449604D01*
X48227000Y12750396D01*
X48168319Y13045410D01*
X48053210Y13323306D01*
X47886099Y13573406D01*
X47673406Y13786099D01*
X47423306Y13953210D01*
X47145410Y14068319D01*
X46850396Y14127000D01*
X46549604Y14127000D01*
X46350000Y14087297D01*
X46150396Y14127000D01*
X45849604Y14127000D01*
X45700000Y14097242D01*
X45550396Y14127000D01*
X45249604Y14127000D01*
X44954590Y14068319D01*
X44676694Y13953210D01*
X44426594Y13786099D01*
X44213901Y13573406D01*
X44046790Y13323306D01*
X43931681Y13045410D01*
X43873000Y12750396D01*
X42487009Y12750396D01*
X42487009Y20016993D01*
X42494396Y20091994D01*
X42487009Y20166995D01*
X42487009Y20167004D01*
X42464914Y20391337D01*
X42377599Y20679178D01*
X42235806Y20944453D01*
X42044985Y21176969D01*
X41986721Y21224785D01*
X39385504Y23826001D01*
X42026722Y26467218D01*
X42084986Y26515034D01*
X42275807Y26747550D01*
X42417600Y27012825D01*
X42504915Y27300666D01*
X42527010Y27524999D01*
X42527010Y27525008D01*
X42534397Y27600009D01*
X42527010Y27675010D01*
X42527010Y32419116D01*
X42534397Y32494117D01*
X42527010Y32569118D01*
X42527010Y32569127D01*
X42504915Y32793460D01*
X42427010Y33050280D01*
X42427010Y37550396D01*
X43773000Y37550396D01*
X43773000Y37249604D01*
X43831681Y36954590D01*
X43946790Y36676694D01*
X44113901Y36426594D01*
X44326594Y36213901D01*
X44576694Y36046790D01*
X44854590Y35931681D01*
X45149604Y35873000D01*
X45450396Y35873000D01*
X45650000Y35912703D01*
X45849604Y35873000D01*
X46150396Y35873000D01*
X46300000Y35902758D01*
X46449604Y35873000D01*
X46750396Y35873000D01*
X47045410Y35931681D01*
X47323306Y36046790D01*
X47573406Y36213901D01*
X47786099Y36426594D01*
X47953210Y36676694D01*
X48068319Y36954590D01*
X48127000Y37249604D01*
X48127000Y37550396D01*
X48068319Y37845410D01*
X47953210Y38123306D01*
X47786099Y38373406D01*
X47573406Y38586099D01*
X47323306Y38753210D01*
X47045410Y38868319D01*
X46750396Y38927000D01*
X46449604Y38927000D01*
X46300000Y38897242D01*
X46150396Y38927000D01*
X45849604Y38927000D01*
X45650000Y38887297D01*
X45450396Y38927000D01*
X45149604Y38927000D01*
X44854590Y38868319D01*
X44576694Y38753210D01*
X44326594Y38586099D01*
X44113901Y38373406D01*
X43946790Y38123306D01*
X43831681Y37845410D01*
X43773000Y37550396D01*
X42427010Y37550396D01*
X42427010Y41419105D01*
X42434398Y41494116D01*
X42404915Y41793461D01*
X42317600Y42081301D01*
X42175807Y42346577D01*
X42032803Y42520827D01*
X42032802Y42520828D01*
X41984986Y42579092D01*
X41926723Y42626907D01*
X40526923Y44026707D01*
X40479102Y44084976D01*
X40246586Y44275797D01*
X39981311Y44417590D01*
X39693470Y44504905D01*
X39667016Y44507511D01*
X39686099Y44526594D01*
X39727985Y44589281D01*
X39775797Y44647540D01*
X39811326Y44714011D01*
X39853210Y44776694D01*
X39882059Y44846342D01*
X39917590Y44912815D01*
X39939468Y44984939D01*
X39968319Y45054590D01*
X39983027Y45128534D01*
X40004905Y45200656D01*
X40012293Y45275664D01*
X40027000Y45349604D01*
X40027000Y45424989D01*
X40034388Y45500000D01*
X40027000Y45575011D01*
X40027000Y45650396D01*
X40012293Y45724336D01*
X40004905Y45799344D01*
X39983027Y45871466D01*
X39968319Y45945410D01*
X39939468Y46015061D01*
X39917590Y46087185D01*
X39882059Y46153658D01*
X39853210Y46223306D01*
X39811326Y46285989D01*
X39775797Y46352460D01*
X39727985Y46410719D01*
X39686099Y46473406D01*
X39632788Y46526717D01*
X39584976Y46584976D01*
X39526717Y46632788D01*
X39473406Y46686099D01*
X39410719Y46727985D01*
X39352460Y46775797D01*
X39285989Y46811326D01*
X39223306Y46853210D01*
X39153658Y46882059D01*
X39087185Y46917590D01*
X39015061Y46939468D01*
X38945410Y46968319D01*
X38871466Y46983027D01*
X38799344Y47004905D01*
X38724336Y47012293D01*
X38650396Y47027000D01*
X37019366Y47027000D01*
X36944365Y47034387D01*
X36869364Y47027000D01*
X36869355Y47027000D01*
X36645022Y47004905D01*
X36357181Y46917590D01*
X36091906Y46775797D01*
X35859390Y46584976D01*
X35811569Y46526706D01*
X35073293Y45788430D01*
X35015023Y45740609D01*
X34824202Y45508092D01*
X34682409Y45242817D01*
X34595094Y44954976D01*
X34572999Y44730643D01*
X34572999Y44730635D01*
X34565612Y44655633D01*
X34572999Y44580632D01*
X34572999Y44227093D01*
X34572990Y44227002D01*
X34572990Y44226993D01*
X34565603Y44151992D01*
X34572990Y44076991D01*
X34572990Y43327000D01*
X31449604Y43327000D01*
X31375664Y43312293D01*
X31300656Y43304905D01*
X31228534Y43283027D01*
X31154590Y43268319D01*
X31084939Y43239468D01*
X31012815Y43217590D01*
X30946342Y43182059D01*
X30876694Y43153210D01*
X30814011Y43111326D01*
X30747540Y43075797D01*
X30689281Y43027985D01*
X30626594Y42986099D01*
X30573283Y42932788D01*
X30515024Y42884976D01*
X30467212Y42826717D01*
X30413901Y42773406D01*
X30372015Y42710719D01*
X30324203Y42652460D01*
X30288674Y42585989D01*
X30246790Y42523306D01*
X30217941Y42453658D01*
X30182410Y42387185D01*
X30160532Y42315061D01*
X30131681Y42245410D01*
X30116973Y42171466D01*
X30095095Y42099344D01*
X30087707Y42024336D01*
X30073000Y41950396D01*
X30073000Y41875011D01*
X30065612Y41800000D01*
X30073000Y41724989D01*
X30073000Y41649604D01*
X30087707Y41575664D01*
X30095095Y41500656D01*
X30116973Y41428534D01*
X30131681Y41354590D01*
X30160532Y41284939D01*
X30182410Y41212815D01*
X30217941Y41146342D01*
X30246790Y41076694D01*
X30288674Y41014011D01*
X30324203Y40947540D01*
X30372015Y40889281D01*
X30413901Y40826594D01*
X30467212Y40773283D01*
X30515024Y40715024D01*
X30573283Y40667212D01*
X30626594Y40613901D01*
X30689281Y40572015D01*
X30747540Y40524203D01*
X30814011Y40488674D01*
X30876694Y40446790D01*
X30946342Y40417941D01*
X31012815Y40382410D01*
X31084939Y40360532D01*
X31154590Y40331681D01*
X31228534Y40316973D01*
X31300656Y40295095D01*
X31375664Y40287707D01*
X31449604Y40273000D01*
X34572990Y40273000D01*
X34572991Y36426621D01*
X33573371Y35427000D01*
X28141730Y35427000D01*
X27945410Y35508319D01*
X27650396Y35567000D01*
X27349604Y35567000D01*
X27054590Y35508319D01*
X26776694Y35393210D01*
X26526594Y35226099D01*
X26313901Y35013406D01*
X26146790Y34763306D01*
X26031681Y34485410D01*
X25973000Y34190396D01*
X25973000Y33889604D01*
X26027988Y33613158D01*
X26029219Y33600656D01*
X26116534Y33312815D01*
X26258327Y33047540D01*
X26449148Y32815024D01*
X26570498Y32715435D01*
X26526594Y32686099D01*
X26473283Y32632788D01*
X26415024Y32584976D01*
X26367212Y32526717D01*
X26313901Y32473406D01*
X26272015Y32410719D01*
X26224203Y32352460D01*
X26188674Y32285989D01*
X26146790Y32223306D01*
X26117941Y32153658D01*
X26082410Y32087185D01*
X26060532Y32015061D01*
X26031681Y31945410D01*
X26016973Y31871466D01*
X25995095Y31799344D01*
X25987707Y31724336D01*
X25973000Y31650396D01*
X25973000Y31575011D01*
X25965612Y31500000D01*
X25973000Y31424989D01*
X25973000Y31349604D01*
X25987707Y31275664D01*
X25995095Y31200656D01*
X26016973Y31128534D01*
X26031681Y31054590D01*
X26060532Y30984939D01*
X26082410Y30912815D01*
X26117941Y30846342D01*
X26146790Y30776694D01*
X26188674Y30714011D01*
X26224203Y30647540D01*
X26272015Y30589281D01*
X26313901Y30526594D01*
X26353495Y30487000D01*
X21427010Y30487000D01*
X21427010Y43973000D01*
X23554838Y43973000D01*
X23654590Y43931681D01*
X23949604Y43873000D01*
X24250396Y43873000D01*
X24545410Y43931681D01*
X24823306Y44046790D01*
X25073406Y44213901D01*
X25286099Y44426594D01*
X25453210Y44676694D01*
X25568319Y44954590D01*
X25627000Y45249604D01*
X25627000Y45550396D01*
X25568319Y45845410D01*
X25453210Y46123306D01*
X25286099Y46373406D01*
X25132788Y46526717D01*
X25084976Y46584976D01*
X24852460Y46775797D01*
X24587185Y46917590D01*
X24299344Y47004905D01*
X24075011Y47027000D01*
X19130635Y47027000D01*
X19055634Y47034387D01*
X18980633Y47027000D01*
X17349604Y47027000D01*
X17275664Y47012293D01*
X17200656Y47004905D01*
X17128534Y46983027D01*
X17054590Y46968319D01*
X16984939Y46939468D01*
X16912815Y46917590D01*
X16846342Y46882059D01*
X16776694Y46853210D01*
X16714011Y46811326D01*
X16647540Y46775797D01*
X16589281Y46727985D01*
X16526594Y46686099D01*
X16473283Y46632788D01*
X16415024Y46584976D01*
X16367212Y46526717D01*
X16313901Y46473406D01*
X16272015Y46410719D01*
X16224203Y46352460D01*
X16188674Y46285989D01*
X16146790Y46223306D01*
X16117941Y46153658D01*
X16082410Y46087185D01*
X16060532Y46015061D01*
X16031681Y45945410D01*
X16016973Y45871466D01*
X15995095Y45799344D01*
X15987707Y45724336D01*
X15973000Y45650396D01*
X15973000Y45575011D01*
X15965612Y45500000D01*
X15973000Y45424989D01*
X15973000Y45349604D01*
X15987707Y45275664D01*
X15995095Y45200656D01*
X16016973Y45128534D01*
X16031681Y45054590D01*
X16060532Y44984939D01*
X16082410Y44912815D01*
X16117941Y44846342D01*
X16146790Y44776694D01*
X16188674Y44714011D01*
X16224203Y44647540D01*
X16272015Y44589281D01*
X16313901Y44526594D01*
X16332984Y44507511D01*
X16306529Y44504905D01*
X16018689Y44417590D01*
X15753413Y44275797D01*
X15579163Y44132793D01*
X15520898Y44084976D01*
X15473081Y44026711D01*
X14073279Y42626908D01*
X14015015Y42579092D01*
X13967199Y42520828D01*
X13967198Y42520827D01*
X13824194Y42346576D01*
X13682401Y42081301D01*
X13595086Y41793460D01*
X13565603Y41494116D01*
X452000Y41494116D01*
X452000Y49548000D01*
X8196925Y49548000D01*
X8046790Y49323306D01*
G37*
X8046790Y49323306D02*
X7931681Y49045410D01*
X7873000Y48750396D01*
X7873000Y48449604D01*
X7931681Y48154590D01*
X8046790Y47876694D01*
X8213901Y47626594D01*
X8426594Y47413901D01*
X8676694Y47246790D01*
X8954590Y47131681D01*
X9249604Y47073000D01*
X9550396Y47073000D01*
X9700000Y47102758D01*
X9849604Y47073000D01*
X10150396Y47073000D01*
X10350000Y47112703D01*
X10549604Y47073000D01*
X10850396Y47073000D01*
X11145410Y47131681D01*
X11423306Y47246790D01*
X11673406Y47413901D01*
X11886099Y47626594D01*
X12053210Y47876694D01*
X12168319Y48154590D01*
X12227000Y48449604D01*
X12227000Y48750396D01*
X12168319Y49045410D01*
X12053210Y49323306D01*
X11903075Y49548000D01*
X44196925Y49548000D01*
X44046790Y49323306D01*
X43931681Y49045410D01*
X43873000Y48750396D01*
X43873000Y48449604D01*
X43931681Y48154590D01*
X44046790Y47876694D01*
X44213901Y47626594D01*
X44426594Y47413901D01*
X44676694Y47246790D01*
X44954590Y47131681D01*
X45249604Y47073000D01*
X45550396Y47073000D01*
X45700000Y47102758D01*
X45849604Y47073000D01*
X46150396Y47073000D01*
X46350000Y47112703D01*
X46549604Y47073000D01*
X46850396Y47073000D01*
X47145410Y47131681D01*
X47423306Y47246790D01*
X47673406Y47413901D01*
X47886099Y47626594D01*
X48053210Y47876694D01*
X48168319Y48154590D01*
X48227000Y48449604D01*
X48227000Y48750396D01*
X48168319Y49045410D01*
X48053210Y49323306D01*
X47903075Y49548000D01*
X55548001Y49548000D01*
X55548000Y452000D01*
X47803075Y452000D01*
X47953210Y676694D01*
X48068319Y954590D01*
X48127000Y1249604D01*
X48127000Y1550396D01*
X48068319Y1845410D01*
X47953210Y2123306D01*
X47786099Y2373406D01*
X47573406Y2586099D01*
X47323306Y2753210D01*
X47045410Y2868319D01*
X46750396Y2927000D01*
X46449604Y2927000D01*
X46300000Y2897242D01*
X46150396Y2927000D01*
X45849604Y2927000D01*
X45650000Y2887297D01*
X45450396Y2927000D01*
X45149604Y2927000D01*
X44854590Y2868319D01*
X44576694Y2753210D01*
X44326594Y2586099D01*
X44113901Y2373406D01*
X43946790Y2123306D01*
X43831681Y1845410D01*
X43773000Y1550396D01*
X43773000Y1249604D01*
X43831681Y954590D01*
X43946790Y676694D01*
X44096925Y452000D01*
X11803075Y452000D01*
X11953210Y676694D01*
X12068319Y954590D01*
X12127000Y1249604D01*
X12127000Y1550396D01*
X12068319Y1845410D01*
X11953210Y2123306D01*
X11786099Y2373406D01*
X11573406Y2586099D01*
X11323306Y2753210D01*
X11045410Y2868319D01*
X10750396Y2927000D01*
X10449604Y2927000D01*
X10300000Y2897242D01*
X10150396Y2927000D01*
X9849604Y2927000D01*
X9650000Y2887297D01*
X9450396Y2927000D01*
X9149604Y2927000D01*
X8854590Y2868319D01*
X8576694Y2753210D01*
X8326594Y2586099D01*
X8113901Y2373406D01*
X7946790Y2123306D01*
X7831681Y1845410D01*
X7773000Y1550396D01*
X7773000Y1249604D01*
X7831681Y954590D01*
X7946790Y676694D01*
X8096925Y452000D01*
X452000Y452000D01*
X452000Y12750396D01*
X7873000Y12750396D01*
X7873000Y12449604D01*
X7931681Y12154590D01*
X8046790Y11876694D01*
X8213901Y11626594D01*
X8426594Y11413901D01*
X8676694Y11246790D01*
X8954590Y11131681D01*
X9249604Y11073000D01*
X9550396Y11073000D01*
X9700000Y11102758D01*
X9849604Y11073000D01*
X10150396Y11073000D01*
X10350000Y11112703D01*
X10549604Y11073000D01*
X10850396Y11073000D01*
X11145410Y11131681D01*
X11423306Y11246790D01*
X11673406Y11413901D01*
X11886099Y11626594D01*
X12053210Y11876694D01*
X12168319Y12154590D01*
X12227000Y12449604D01*
X12227000Y12750396D01*
X12168319Y13045410D01*
X12053210Y13323306D01*
X11886099Y13573406D01*
X11673406Y13786099D01*
X11423306Y13953210D01*
X11145410Y14068319D01*
X10850396Y14127000D01*
X10549604Y14127000D01*
X10350000Y14087297D01*
X10150396Y14127000D01*
X9849604Y14127000D01*
X9700000Y14097242D01*
X9550396Y14127000D01*
X9249604Y14127000D01*
X8954590Y14068319D01*
X8676694Y13953210D01*
X8426594Y13786099D01*
X8213901Y13573406D01*
X8046790Y13323306D01*
X7931681Y13045410D01*
X7873000Y12750396D01*
X452000Y12750396D01*
X452000Y37550396D01*
X7773000Y37550396D01*
X7773000Y37249604D01*
X7831681Y36954590D01*
X7946790Y36676694D01*
X8113901Y36426594D01*
X8326594Y36213901D01*
X8576694Y36046790D01*
X8854590Y35931681D01*
X9149604Y35873000D01*
X9450396Y35873000D01*
X9650000Y35912703D01*
X9849604Y35873000D01*
X10150396Y35873000D01*
X10300000Y35902758D01*
X10449604Y35873000D01*
X10750396Y35873000D01*
X11045410Y35931681D01*
X11323306Y36046790D01*
X11573406Y36213901D01*
X11786099Y36426594D01*
X11953210Y36676694D01*
X12068319Y36954590D01*
X12127000Y37249604D01*
X12127000Y37550396D01*
X12068319Y37845410D01*
X11953210Y38123306D01*
X11786099Y38373406D01*
X11573406Y38586099D01*
X11323306Y38753210D01*
X11045410Y38868319D01*
X10750396Y38927000D01*
X10449604Y38927000D01*
X10300000Y38897242D01*
X10150396Y38927000D01*
X9849604Y38927000D01*
X9650000Y38887297D01*
X9450396Y38927000D01*
X9149604Y38927000D01*
X8854590Y38868319D01*
X8576694Y38753210D01*
X8326594Y38586099D01*
X8113901Y38373406D01*
X7946790Y38123306D01*
X7831681Y37845410D01*
X7773000Y37550396D01*
X452000Y37550396D01*
X452000Y41494116D01*
X13565603Y41494116D01*
X13572991Y41419105D01*
X13572990Y27475011D01*
X13565603Y27400010D01*
X13572990Y27325009D01*
X13572990Y27325000D01*
X13595085Y27100667D01*
X13682400Y26812826D01*
X13824193Y26547551D01*
X14015014Y26315034D01*
X14073284Y26267213D01*
X16743433Y23597063D01*
X14073279Y20926908D01*
X14015015Y20879092D01*
X13967199Y20820828D01*
X13967198Y20820827D01*
X13824194Y20646576D01*
X13682401Y20381301D01*
X13595086Y20093460D01*
X13565603Y19794116D01*
X13572991Y19719105D01*
X13572990Y8580885D01*
X13565603Y8505884D01*
X13572990Y8430883D01*
X13572990Y8430874D01*
X13595085Y8206541D01*
X13682400Y7918700D01*
X13824193Y7653425D01*
X14015014Y7420908D01*
X14073283Y7373087D01*
X15473081Y5973289D01*
X15520898Y5915024D01*
X15579162Y5867208D01*
X15579163Y5867207D01*
X15753413Y5724203D01*
X16018689Y5582410D01*
X16306529Y5495095D01*
X16332984Y5492489D01*
X16313901Y5473406D01*
X16272015Y5410719D01*
X16224203Y5352460D01*
X16188674Y5285989D01*
X16146790Y5223306D01*
X16117941Y5153658D01*
X16082410Y5087185D01*
X16060532Y5015061D01*
X16031681Y4945410D01*
X16016973Y4871466D01*
X15995095Y4799344D01*
X15987707Y4724336D01*
X15973000Y4650396D01*
X15973000Y4575011D01*
X15965612Y4500000D01*
X15973000Y4424989D01*
X15973000Y4349604D01*
X15987707Y4275664D01*
X15995095Y4200656D01*
X16016973Y4128534D01*
X16031681Y4054590D01*
X16060532Y3984939D01*
X16082410Y3912815D01*
X16117941Y3846342D01*
X16146790Y3776694D01*
X16188674Y3714011D01*
X16224203Y3647540D01*
X16272015Y3589281D01*
X16313901Y3526594D01*
X16367212Y3473283D01*
X16415024Y3415024D01*
X16473283Y3367212D01*
X16526594Y3313901D01*
X16589281Y3272015D01*
X16647540Y3224203D01*
X16714011Y3188674D01*
X16776694Y3146790D01*
X16846342Y3117941D01*
X16912815Y3082410D01*
X16984939Y3060532D01*
X17054590Y3031681D01*
X17128534Y3016973D01*
X17200656Y2995095D01*
X17275664Y2987707D01*
X17349604Y2973000D01*
X18319125Y2973000D01*
X18394126Y2965613D01*
X18469127Y2973000D01*
X18469137Y2973000D01*
X18693470Y2995095D01*
X18981311Y3082410D01*
X19246586Y3224203D01*
X19479102Y3415024D01*
X19526923Y3473293D01*
X20926723Y4873093D01*
X20984986Y4920908D01*
X21049896Y5000001D01*
X21175807Y5153423D01*
X21317600Y5418699D01*
X21404915Y5706539D01*
X21431159Y5973000D01*
X24750396Y5973000D01*
X24824336Y5987707D01*
X24899344Y5995095D01*
X24971466Y6016973D01*
X25045410Y6031681D01*
X25115061Y6060532D01*
X25187185Y6082410D01*
X25253658Y6117941D01*
X25323306Y6146790D01*
X25385989Y6188674D01*
X25452460Y6224203D01*
X25510719Y6272015D01*
X25573406Y6313901D01*
X25626717Y6367212D01*
X25684976Y6415024D01*
X25732788Y6473283D01*
X25786099Y6526594D01*
X25827985Y6589281D01*
X25875797Y6647540D01*
X25911326Y6714011D01*
X25953210Y6776694D01*
X25982059Y6846342D01*
X26017590Y6912815D01*
X26039468Y6984939D01*
X26068319Y7054590D01*
X26083027Y7128534D01*
X26104905Y7200656D01*
X26112293Y7275664D01*
X26127000Y7349604D01*
X26127000Y7424989D01*
X26134388Y7500000D01*
X26127000Y7575011D01*
X26127000Y7650396D01*
X26112293Y7724336D01*
X26104905Y7799344D01*
X26083027Y7871466D01*
X26068319Y7945410D01*
X26039468Y8015061D01*
X26017590Y8087185D01*
X25982059Y8153658D01*
X25953210Y8223306D01*
X25911326Y8285989D01*
X25875797Y8352460D01*
X25827985Y8410719D01*
X25786099Y8473406D01*
X25732788Y8526717D01*
X25684976Y8584976D01*
X25626717Y8632788D01*
X25573406Y8686099D01*
X25510719Y8727985D01*
X25452460Y8775797D01*
X25385989Y8811326D01*
X25323306Y8853210D01*
X25253658Y8882059D01*
X25187185Y8917590D01*
X25115061Y8939468D01*
X25045410Y8968319D01*
X24971466Y8983027D01*
X24899344Y9004905D01*
X24824336Y9012293D01*
X24750396Y9027000D01*
X21432503Y9027000D01*
X21427010Y9032493D01*
X21427010Y11267507D01*
X21432503Y11273000D01*
X27475011Y11273000D01*
X27699344Y11295095D01*
X27987185Y11382410D01*
X28252460Y11524203D01*
X28484976Y11715024D01*
X28624319Y11884814D01*
X28686099Y11946594D01*
X28853210Y12196694D01*
X28968319Y12474590D01*
X29027000Y12769604D01*
X29027000Y13070396D01*
X28968319Y13365410D01*
X28853210Y13643306D01*
X28686099Y13893406D01*
X28489145Y14090360D01*
X28552460Y14124203D01*
X28784976Y14315024D01*
X28975797Y14547540D01*
X29117590Y14812815D01*
X29204905Y15100656D01*
X29234388Y15400000D01*
X29204905Y15699344D01*
X29117590Y15987185D01*
X28975797Y16252460D01*
X28794804Y16473000D01*
X34572999Y16473000D01*
X34573000Y6027000D01*
X32149604Y6027000D01*
X32075664Y6012293D01*
X32000656Y6004905D01*
X31928534Y5983027D01*
X31854590Y5968319D01*
X31784939Y5939468D01*
X31712815Y5917590D01*
X31646342Y5882059D01*
X31576694Y5853210D01*
X31514011Y5811326D01*
X31447540Y5775797D01*
X31389281Y5727985D01*
X31326594Y5686099D01*
X31273283Y5632788D01*
X31215024Y5584976D01*
X31167212Y5526717D01*
X31113901Y5473406D01*
X31072015Y5410719D01*
X31024203Y5352460D01*
X30988674Y5285989D01*
X30946790Y5223306D01*
X30917941Y5153658D01*
X30882410Y5087185D01*
X30860532Y5015061D01*
X30831681Y4945410D01*
X30816973Y4871466D01*
X30795095Y4799344D01*
X30787707Y4724336D01*
X30773000Y4650396D01*
X30773000Y4575011D01*
X30765612Y4500000D01*
X30773000Y4424989D01*
X30773000Y4349604D01*
X30787707Y4275664D01*
X30795095Y4200656D01*
X30816973Y4128534D01*
X30831681Y4054590D01*
X30860532Y3984939D01*
X30882410Y3912815D01*
X30917941Y3846342D01*
X30946790Y3776694D01*
X30988674Y3714011D01*
X31024203Y3647540D01*
X31072015Y3589281D01*
X31113901Y3526594D01*
X31167212Y3473283D01*
X31215024Y3415024D01*
X31273283Y3367212D01*
X31326594Y3313901D01*
X31389281Y3272015D01*
X31447540Y3224203D01*
X31514011Y3188674D01*
X31576694Y3146790D01*
X31646342Y3117941D01*
X31712815Y3082410D01*
X31784939Y3060532D01*
X31854590Y3031681D01*
X31928534Y3016973D01*
X32000656Y2995095D01*
X32075664Y2987707D01*
X32149604Y2973000D01*
X36524998Y2973000D01*
X36599999Y2965613D01*
X36675000Y2973000D01*
X38650396Y2973000D01*
X38724336Y2987707D01*
X38799344Y2995095D01*
X38871466Y3016973D01*
X38945410Y3031681D01*
X39015061Y3060532D01*
X39087185Y3082410D01*
X39153658Y3117941D01*
X39223306Y3146790D01*
X39285989Y3188674D01*
X39352460Y3224203D01*
X39410719Y3272015D01*
X39473406Y3313901D01*
X39526717Y3367212D01*
X39584976Y3415024D01*
X39632788Y3473283D01*
X39686099Y3526594D01*
X39727985Y3589281D01*
X39775797Y3647540D01*
X39811326Y3714011D01*
X39853210Y3776694D01*
X39882059Y3846342D01*
X39917590Y3912815D01*
X39939468Y3984939D01*
X39968319Y4054590D01*
X39983027Y4128534D01*
X40004905Y4200656D01*
X40012293Y4275664D01*
X40027000Y4349604D01*
X40027000Y4424989D01*
X40034388Y4500000D01*
X40027000Y4575011D01*
X40027000Y4650396D01*
X40012293Y4724336D01*
X40004905Y4799344D01*
X39983027Y4871466D01*
X39968319Y4945410D01*
X39939468Y5015061D01*
X39917590Y5087185D01*
X39882059Y5153658D01*
X39853210Y5223306D01*
X39811326Y5285989D01*
X39775797Y5352460D01*
X39727985Y5410719D01*
X39686099Y5473406D01*
X39681171Y5478334D01*
X39851346Y5495095D01*
X40139187Y5582410D01*
X40404462Y5724203D01*
X40636978Y5915024D01*
X40684798Y5973293D01*
X41986722Y7275216D01*
X42044985Y7323031D01*
X42127417Y7423474D01*
X42190220Y7500000D01*
X42235806Y7555547D01*
X42377599Y7820822D01*
X42387197Y7852461D01*
X42464914Y8108662D01*
X42494397Y8408007D01*
X42487009Y8483018D01*
X42487009Y12750396D01*
X43873000Y12750396D01*
X43873000Y12449604D01*
X43931681Y12154590D01*
X44046790Y11876694D01*
X44213901Y11626594D01*
X44426594Y11413901D01*
X44676694Y11246790D01*
X44954590Y11131681D01*
X45249604Y11073000D01*
X45550396Y11073000D01*
X45700000Y11102758D01*
X45849604Y11073000D01*
X46150396Y11073000D01*
X46350000Y11112703D01*
X46549604Y11073000D01*
X46850396Y11073000D01*
X47145410Y11131681D01*
X47423306Y11246790D01*
X47673406Y11413901D01*
X47886099Y11626594D01*
X48053210Y11876694D01*
X48168319Y12154590D01*
X48227000Y12449604D01*
X48227000Y12750396D01*
X48168319Y13045410D01*
X48053210Y13323306D01*
X47886099Y13573406D01*
X47673406Y13786099D01*
X47423306Y13953210D01*
X47145410Y14068319D01*
X46850396Y14127000D01*
X46549604Y14127000D01*
X46350000Y14087297D01*
X46150396Y14127000D01*
X45849604Y14127000D01*
X45700000Y14097242D01*
X45550396Y14127000D01*
X45249604Y14127000D01*
X44954590Y14068319D01*
X44676694Y13953210D01*
X44426594Y13786099D01*
X44213901Y13573406D01*
X44046790Y13323306D01*
X43931681Y13045410D01*
X43873000Y12750396D01*
X42487009Y12750396D01*
X42487009Y20016993D01*
X42494396Y20091994D01*
X42487009Y20166995D01*
X42487009Y20167004D01*
X42464914Y20391337D01*
X42377599Y20679178D01*
X42235806Y20944453D01*
X42044985Y21176969D01*
X41986721Y21224785D01*
X39385504Y23826001D01*
X42026722Y26467218D01*
X42084986Y26515034D01*
X42275807Y26747550D01*
X42417600Y27012825D01*
X42504915Y27300666D01*
X42527010Y27524999D01*
X42527010Y27525008D01*
X42534397Y27600009D01*
X42527010Y27675010D01*
X42527010Y32419116D01*
X42534397Y32494117D01*
X42527010Y32569118D01*
X42527010Y32569127D01*
X42504915Y32793460D01*
X42427010Y33050280D01*
X42427010Y37550396D01*
X43773000Y37550396D01*
X43773000Y37249604D01*
X43831681Y36954590D01*
X43946790Y36676694D01*
X44113901Y36426594D01*
X44326594Y36213901D01*
X44576694Y36046790D01*
X44854590Y35931681D01*
X45149604Y35873000D01*
X45450396Y35873000D01*
X45650000Y35912703D01*
X45849604Y35873000D01*
X46150396Y35873000D01*
X46300000Y35902758D01*
X46449604Y35873000D01*
X46750396Y35873000D01*
X47045410Y35931681D01*
X47323306Y36046790D01*
X47573406Y36213901D01*
X47786099Y36426594D01*
X47953210Y36676694D01*
X48068319Y36954590D01*
X48127000Y37249604D01*
X48127000Y37550396D01*
X48068319Y37845410D01*
X47953210Y38123306D01*
X47786099Y38373406D01*
X47573406Y38586099D01*
X47323306Y38753210D01*
X47045410Y38868319D01*
X46750396Y38927000D01*
X46449604Y38927000D01*
X46300000Y38897242D01*
X46150396Y38927000D01*
X45849604Y38927000D01*
X45650000Y38887297D01*
X45450396Y38927000D01*
X45149604Y38927000D01*
X44854590Y38868319D01*
X44576694Y38753210D01*
X44326594Y38586099D01*
X44113901Y38373406D01*
X43946790Y38123306D01*
X43831681Y37845410D01*
X43773000Y37550396D01*
X42427010Y37550396D01*
X42427010Y41419105D01*
X42434398Y41494116D01*
X42404915Y41793461D01*
X42317600Y42081301D01*
X42175807Y42346577D01*
X42032803Y42520827D01*
X42032802Y42520828D01*
X41984986Y42579092D01*
X41926723Y42626907D01*
X40526923Y44026707D01*
X40479102Y44084976D01*
X40246586Y44275797D01*
X39981311Y44417590D01*
X39693470Y44504905D01*
X39667016Y44507511D01*
X39686099Y44526594D01*
X39727985Y44589281D01*
X39775797Y44647540D01*
X39811326Y44714011D01*
X39853210Y44776694D01*
X39882059Y44846342D01*
X39917590Y44912815D01*
X39939468Y44984939D01*
X39968319Y45054590D01*
X39983027Y45128534D01*
X40004905Y45200656D01*
X40012293Y45275664D01*
X40027000Y45349604D01*
X40027000Y45424989D01*
X40034388Y45500000D01*
X40027000Y45575011D01*
X40027000Y45650396D01*
X40012293Y45724336D01*
X40004905Y45799344D01*
X39983027Y45871466D01*
X39968319Y45945410D01*
X39939468Y46015061D01*
X39917590Y46087185D01*
X39882059Y46153658D01*
X39853210Y46223306D01*
X39811326Y46285989D01*
X39775797Y46352460D01*
X39727985Y46410719D01*
X39686099Y46473406D01*
X39632788Y46526717D01*
X39584976Y46584976D01*
X39526717Y46632788D01*
X39473406Y46686099D01*
X39410719Y46727985D01*
X39352460Y46775797D01*
X39285989Y46811326D01*
X39223306Y46853210D01*
X39153658Y46882059D01*
X39087185Y46917590D01*
X39015061Y46939468D01*
X38945410Y46968319D01*
X38871466Y46983027D01*
X38799344Y47004905D01*
X38724336Y47012293D01*
X38650396Y47027000D01*
X37019366Y47027000D01*
X36944365Y47034387D01*
X36869364Y47027000D01*
X36869355Y47027000D01*
X36645022Y47004905D01*
X36357181Y46917590D01*
X36091906Y46775797D01*
X35859390Y46584976D01*
X35811569Y46526706D01*
X35073293Y45788430D01*
X35015023Y45740609D01*
X34824202Y45508092D01*
X34682409Y45242817D01*
X34595094Y44954976D01*
X34572999Y44730643D01*
X34572999Y44730635D01*
X34565612Y44655633D01*
X34572999Y44580632D01*
X34572999Y44227093D01*
X34572990Y44227002D01*
X34572990Y44226993D01*
X34565603Y44151992D01*
X34572990Y44076991D01*
X34572990Y43327000D01*
X31449604Y43327000D01*
X31375664Y43312293D01*
X31300656Y43304905D01*
X31228534Y43283027D01*
X31154590Y43268319D01*
X31084939Y43239468D01*
X31012815Y43217590D01*
X30946342Y43182059D01*
X30876694Y43153210D01*
X30814011Y43111326D01*
X30747540Y43075797D01*
X30689281Y43027985D01*
X30626594Y42986099D01*
X30573283Y42932788D01*
X30515024Y42884976D01*
X30467212Y42826717D01*
X30413901Y42773406D01*
X30372015Y42710719D01*
X30324203Y42652460D01*
X30288674Y42585989D01*
X30246790Y42523306D01*
X30217941Y42453658D01*
X30182410Y42387185D01*
X30160532Y42315061D01*
X30131681Y42245410D01*
X30116973Y42171466D01*
X30095095Y42099344D01*
X30087707Y42024336D01*
X30073000Y41950396D01*
X30073000Y41875011D01*
X30065612Y41800000D01*
X30073000Y41724989D01*
X30073000Y41649604D01*
X30087707Y41575664D01*
X30095095Y41500656D01*
X30116973Y41428534D01*
X30131681Y41354590D01*
X30160532Y41284939D01*
X30182410Y41212815D01*
X30217941Y41146342D01*
X30246790Y41076694D01*
X30288674Y41014011D01*
X30324203Y40947540D01*
X30372015Y40889281D01*
X30413901Y40826594D01*
X30467212Y40773283D01*
X30515024Y40715024D01*
X30573283Y40667212D01*
X30626594Y40613901D01*
X30689281Y40572015D01*
X30747540Y40524203D01*
X30814011Y40488674D01*
X30876694Y40446790D01*
X30946342Y40417941D01*
X31012815Y40382410D01*
X31084939Y40360532D01*
X31154590Y40331681D01*
X31228534Y40316973D01*
X31300656Y40295095D01*
X31375664Y40287707D01*
X31449604Y40273000D01*
X34572990Y40273000D01*
X34572991Y36426621D01*
X33573371Y35427000D01*
X28141730Y35427000D01*
X27945410Y35508319D01*
X27650396Y35567000D01*
X27349604Y35567000D01*
X27054590Y35508319D01*
X26776694Y35393210D01*
X26526594Y35226099D01*
X26313901Y35013406D01*
X26146790Y34763306D01*
X26031681Y34485410D01*
X25973000Y34190396D01*
X25973000Y33889604D01*
X26027988Y33613158D01*
X26029219Y33600656D01*
X26116534Y33312815D01*
X26258327Y33047540D01*
X26449148Y32815024D01*
X26570498Y32715435D01*
X26526594Y32686099D01*
X26473283Y32632788D01*
X26415024Y32584976D01*
X26367212Y32526717D01*
X26313901Y32473406D01*
X26272015Y32410719D01*
X26224203Y32352460D01*
X26188674Y32285989D01*
X26146790Y32223306D01*
X26117941Y32153658D01*
X26082410Y32087185D01*
X26060532Y32015061D01*
X26031681Y31945410D01*
X26016973Y31871466D01*
X25995095Y31799344D01*
X25987707Y31724336D01*
X25973000Y31650396D01*
X25973000Y31575011D01*
X25965612Y31500000D01*
X25973000Y31424989D01*
X25973000Y31349604D01*
X25987707Y31275664D01*
X25995095Y31200656D01*
X26016973Y31128534D01*
X26031681Y31054590D01*
X26060532Y30984939D01*
X26082410Y30912815D01*
X26117941Y30846342D01*
X26146790Y30776694D01*
X26188674Y30714011D01*
X26224203Y30647540D01*
X26272015Y30589281D01*
X26313901Y30526594D01*
X26353495Y30487000D01*
X21427010Y30487000D01*
X21427010Y43973000D01*
X23554838Y43973000D01*
X23654590Y43931681D01*
X23949604Y43873000D01*
X24250396Y43873000D01*
X24545410Y43931681D01*
X24823306Y44046790D01*
X25073406Y44213901D01*
X25286099Y44426594D01*
X25453210Y44676694D01*
X25568319Y44954590D01*
X25627000Y45249604D01*
X25627000Y45550396D01*
X25568319Y45845410D01*
X25453210Y46123306D01*
X25286099Y46373406D01*
X25132788Y46526717D01*
X25084976Y46584976D01*
X24852460Y46775797D01*
X24587185Y46917590D01*
X24299344Y47004905D01*
X24075011Y47027000D01*
X19130635Y47027000D01*
X19055634Y47034387D01*
X18980633Y47027000D01*
X17349604Y47027000D01*
X17275664Y47012293D01*
X17200656Y47004905D01*
X17128534Y46983027D01*
X17054590Y46968319D01*
X16984939Y46939468D01*
X16912815Y46917590D01*
X16846342Y46882059D01*
X16776694Y46853210D01*
X16714011Y46811326D01*
X16647540Y46775797D01*
X16589281Y46727985D01*
X16526594Y46686099D01*
X16473283Y46632788D01*
X16415024Y46584976D01*
X16367212Y46526717D01*
X16313901Y46473406D01*
X16272015Y46410719D01*
X16224203Y46352460D01*
X16188674Y46285989D01*
X16146790Y46223306D01*
X16117941Y46153658D01*
X16082410Y46087185D01*
X16060532Y46015061D01*
X16031681Y45945410D01*
X16016973Y45871466D01*
X15995095Y45799344D01*
X15987707Y45724336D01*
X15973000Y45650396D01*
X15973000Y45575011D01*
X15965612Y45500000D01*
X15973000Y45424989D01*
X15973000Y45349604D01*
X15987707Y45275664D01*
X15995095Y45200656D01*
X16016973Y45128534D01*
X16031681Y45054590D01*
X16060532Y44984939D01*
X16082410Y44912815D01*
X16117941Y44846342D01*
X16146790Y44776694D01*
X16188674Y44714011D01*
X16224203Y44647540D01*
X16272015Y44589281D01*
X16313901Y44526594D01*
X16332984Y44507511D01*
X16306529Y44504905D01*
X16018689Y44417590D01*
X15753413Y44275797D01*
X15579163Y44132793D01*
X15520898Y44084976D01*
X15473081Y44026711D01*
X14073279Y42626908D01*
X14015015Y42579092D01*
X13967199Y42520828D01*
X13967198Y42520827D01*
X13824194Y42346576D01*
X13682401Y42081301D01*
X13595086Y41793460D01*
X13565603Y41494116D01*
X452000Y41494116D01*
X452000Y49548000D01*
X8196925Y49548000D01*
X8046790Y49323306D01*
%TD*%
M02*
