M48
; DRILL file {KiCad (5.1.6)-1} date 08/21/23 10:03:42
; FORMAT={-:-/ absolute / metric / decimal}
; #@! TF.CreationDate,2023-08-21T10:03:42-05:00
; #@! TF.GenerationSoftware,Kicad,Pcbnew,(5.1.6)-1
FMAT,2
METRIC
T1C0.800
T2C0.900
T3C1.000
T4C2.500
%
G90
G05
T1
X54.84Y69.65
T2
X48.895Y6.35
X53.34Y6.35
X55.88Y6.35
X58.42Y6.35
X50.165Y8.89
X48.895Y13.97
X23.644Y14.456
X42.545Y14.605
X63.5Y15.24
X46.99Y15.875
X22.225Y16.431
X30.48Y16.51
X60.325Y16.51
X63.5Y19.05
X60.96Y19.05
X58.42Y19.05
X55.88Y19.05
X53.34Y19.05
X50.8Y19.05
X48.26Y19.05
X45.72Y19.05
X43.18Y19.05
X40.64Y19.05
X38.1Y19.05
X35.56Y19.05
X33.02Y19.05
X30.48Y19.05
X27.94Y19.05
X25.4Y19.05
X22.86Y19.05
X20.32Y19.05
X17.78Y19.05
X15.24Y19.05
X12.7Y19.05
X10.16Y19.05
X7.62Y19.05
X5.08Y19.05
X5.08Y21.59
X48.26Y21.59
X50.8Y21.59
X53.34Y21.59
X55.88Y21.59
X63.5Y21.59
X55.88Y29.21
X53.34Y29.21
X50.8Y29.21
X48.26Y29.21
X40.64Y31.75
X43.18Y31.75
X63.5Y34.29
X60.96Y34.29
X58.42Y34.29
X55.88Y34.29
X53.34Y34.29
X50.8Y34.29
X48.26Y34.29
X45.72Y34.29
X43.18Y34.29
X40.64Y34.29
X38.1Y34.29
X35.56Y34.29
X33.02Y34.29
X30.48Y34.29
X27.94Y34.29
X25.4Y34.29
X22.86Y34.29
X20.32Y34.29
X17.78Y34.29
X15.24Y34.29
X12.7Y34.29
X10.16Y34.29
X7.62Y34.29
X5.08Y34.29
X2.54Y34.29
X48.26Y37.465
X64.77Y37.465
X67.31Y37.465
X67.31Y41.91
X64.77Y41.91
X62.23Y41.91
X55.88Y41.91
X53.34Y41.91
X50.8Y41.91
X48.26Y41.91
X45.72Y41.91
X38.1Y41.91
X35.56Y41.91
X33.02Y41.91
X30.48Y41.91
X27.94Y41.91
X25.4Y41.91
X22.86Y41.91
X20.32Y41.91
X17.78Y41.91
X15.24Y41.91
X12.7Y41.91
X10.16Y41.91
X7.62Y41.91
X5.08Y41.91
X2.54Y41.91
X19.28Y55.426
X19.28Y57.966
X19.28Y60.506
X19.28Y63.046
X67.54Y64.57
X19.28Y65.586
X44.68Y67.11
X65.0Y67.11
X67.54Y67.11
X19.28Y68.126
X24.36Y69.65
X26.9Y69.65
X29.44Y69.65
X31.98Y69.65
X34.52Y69.65
X37.06Y69.65
X39.6Y69.65
X42.14Y69.65
X44.68Y69.65
X47.22Y69.65
X49.76Y69.65
X52.3Y69.65
X57.38Y69.65
X59.92Y69.65
X62.46Y69.65
X67.54Y69.65
X19.28Y70.666
X47.22Y72.19
X65.0Y72.19
X67.54Y72.19
X19.28Y73.206
X67.54Y74.73
X67.54Y77.27
X19.28Y77.27
X19.28Y79.81
X67.54Y82.35
X19.28Y82.35
X19.28Y84.89
X67.54Y84.89
X67.54Y87.43
X19.28Y87.43
X19.28Y89.97
X67.54Y89.97
X67.54Y92.51
X19.28Y92.51
X19.28Y95.05
X67.54Y95.05
T3
X44.45Y10.16
X41.91Y10.16
X39.37Y10.16
X36.83Y10.16
X34.29Y10.16
X31.75Y10.16
X29.21Y10.16
X26.67Y10.16
X21.59Y10.16
X19.05Y10.16
X16.51Y10.16
X13.97Y10.16
X11.43Y10.16
X8.89Y10.16
X6.35Y10.16
X3.81Y10.16
X53.34Y11.43
X55.88Y11.43
X58.42Y11.43
X60.96Y11.43
X63.5Y11.43
X66.04Y11.43
T4
X68.0Y2.0
X2.0Y2.0
X2.0Y48.0
X68.0Y48.0
T0
M30
